<svg width="13" height="15" viewBox="0 0 13 15" fill="none" xmlns="http://www.w3.org/2000/svg">
<path d="M11.7101 11.0291C11.6024 11.035 11.5007 11.035 11.3931 11.035C9.65248 11.035 8.01356 10.3591 6.78138 9.12695C5.5492 7.89478 4.8733 6.25586 4.8733 4.51526C4.8733 3.52234 5.09461 2.56531 5.50733 1.698C5.69276 1.31519 5.91407 0.950317 6.17127 0.609375C5.71668 0.657227 5.28004 0.752929 4.85535 0.884521C2.05603 1.76977 0.0283203 4.38367 0.0283203 7.47607C0.0283203 11.2922 3.12073 14.3846 6.9369 14.3846C9.04835 14.3846 10.9325 13.4396 12.2006 11.9502C12.4877 11.6093 12.7509 11.2384 12.9662 10.8436C12.5595 10.9453 12.1408 11.0111 11.7101 11.0291Z" fill="black"/>
</svg>
