<svg viewBox="0 0 341 313" fill="none" xmlns="http://www.w3.org/2000/svg">
<path d="M340.26 144.09H0.51001V156.28H340.26V144.09Z" fill="#69C6E2"/>
<path opacity="0.3" d="M91.44 144.09H0.51001V156.28H91.44V144.09Z" fill="white"/>
<path d="M92.89 156.28H84.98L89.12 309.06H92.89H96.66L100.81 156.28H92.89Z" fill="#69C6E2"/>
<path opacity="0.3" d="M89.1201 309.06H92.8901V159.56L85.1101 160.98L89.1201 309.06Z" fill="white"/>
<path d="M17.92 156.28H10.01L14.15 309.06H17.92H21.69L25.83 156.28H17.92Z" fill="#69C6E2"/>
<path opacity="0.3" d="M14.1499 309.06H17.9199V159.56L10.1299 160.98L14.1499 309.06Z" fill="white"/>
<path d="M322.85 156.28H314.94L319.08 309.06H322.85H326.62L330.77 156.28H322.85Z" fill="#69C6E2"/>
<path opacity="0.3" d="M319.08 309.06H322.85V159.56L315.07 160.98L319.08 309.06Z" fill="white"/>
<path d="M247.88 156.28H239.97L244.11 309.06H247.88H251.65L255.79 156.28H247.88Z" fill="#69C6E2"/>
<path opacity="0.3" d="M244.11 309.06H247.88V159.56L240.1 160.98L244.11 309.06Z" fill="white"/>
<path d="M161.78 78.83H81.0001C80.3445 78.8041 79.6921 78.9335 79.0961 79.2079C78.5002 79.4822 77.9775 79.8936 77.5709 80.4084C77.1643 80.9233 76.8852 81.527 76.7564 82.1703C76.6277 82.8137 76.6529 83.4783 76.8301 84.11L87.5901 135.46C87.9363 136.912 88.7464 138.212 89.8976 139.163C91.0488 140.114 92.4784 140.664 93.9701 140.73H174.81C175.465 140.755 176.116 140.626 176.711 140.352C177.306 140.078 177.828 139.668 178.234 139.154C178.64 138.641 178.92 138.039 179.049 137.397C179.179 136.755 179.155 136.091 178.98 135.46L168.21 84.11C167.863 82.6478 167.047 81.3396 165.885 80.3859C164.724 79.4323 163.282 78.8857 161.78 78.83V78.83Z" fill="#263238"/>
<path d="M94.6701 137.8C93.6624 137.732 92.7021 137.347 91.9262 136.701C91.1503 136.054 90.5987 135.179 90.3501 134.2L79.5901 82.85C79.498 82.5102 79.4835 82.1541 79.5475 81.8079C79.6116 81.4617 79.7526 81.1344 79.9601 80.85C80.1754 80.6065 80.4426 80.4145 80.742 80.2882C81.0415 80.1618 81.3655 80.1044 81.6901 80.12H162.53C163.538 80.188 164.498 80.5728 165.274 81.2193C166.05 81.8659 166.601 82.7411 166.85 83.72L177.61 135.07C177.702 135.41 177.717 135.766 177.653 136.112C177.589 136.458 177.448 136.786 177.24 137.07C177.026 137.315 176.759 137.508 176.459 137.635C176.16 137.761 175.835 137.818 175.51 137.8H94.6701Z" fill="white"/>
<path opacity="0.4" d="M155.66 133.69L145.46 85C145.403 84.7117 145.41 84.4144 145.48 84.1291C145.551 83.8438 145.684 83.5776 145.869 83.3494C146.054 83.1212 146.287 82.9367 146.552 82.8089C146.817 82.6811 147.106 82.6132 147.4 82.61H160.52C160.975 82.6135 161.415 82.7719 161.768 83.0592C162.12 83.3464 162.365 83.7453 162.46 84.19L172.66 132.84C172.717 133.128 172.71 133.426 172.64 133.711C172.569 133.996 172.437 134.262 172.251 134.491C172.066 134.719 171.833 134.903 171.568 135.031C171.304 135.159 171.014 135.227 170.72 135.23H157.6C157.151 135.229 156.715 135.076 156.363 134.796C156.011 134.517 155.763 134.127 155.66 133.69V133.69Z" fill="#69C6E2"/>
<path d="M86.3201 86.87L85.8801 84.76H102.08L102.52 86.87H86.3201Z" fill="#69C6E2"/>
<path d="M93.8001 92.11L93.3601 90H121.75L122.2 92.11H93.8001Z" fill="#EBEBEB"/>
<path d="M95.3001 97.34L94.8501 95.23H126.68L127.12 97.34H95.3001Z" fill="#EBEBEB"/>
<path d="M96.7901 102.58L96.3501 100.47H121.97L122.42 102.58H96.7901Z" fill="#EBEBEB"/>
<path d="M91.25 111.07L90.8 108.96H101.05L101.49 111.07H91.25Z" fill="#69C6E2"/>
<path d="M98.72 116.3L98.28 114.19H110.76L111.21 116.3H98.72Z" fill="#EBEBEB"/>
<path d="M114.2 116.3L113.75 114.19H126.24L126.68 116.3H114.2Z" fill="#EBEBEB"/>
<path d="M100.22 121.54L99.78 119.43H141.98L142.42 121.54H100.22Z" fill="#EBEBEB"/>
<path d="M101.71 126.77L101.27 124.66H133.45L133.89 126.77H101.71Z" fill="#EBEBEB"/>
<path d="M199.52 140.42H93.1599C90.2599 140.42 88.3799 142.07 88.9899 144.09H205.9C205.3 142.07 202.42 140.42 199.52 140.42Z" fill="#263238"/>
<path opacity="0.1" d="M58.2101 65.85L48.0001 17.19C47.9444 16.9025 47.9526 16.6062 48.024 16.3222C48.0954 16.0381 48.2283 15.7732 48.4134 15.5462C48.5984 15.3192 48.8311 15.1356 49.0949 15.0084C49.3587 14.8812 49.6472 14.8134 49.9401 14.81H132.54C132.994 14.813 133.433 14.97 133.785 15.2553C134.138 15.5405 134.383 15.9371 134.48 16.38L144.69 65C144.747 65.2883 144.741 65.5856 144.67 65.8709C144.599 66.1562 144.467 66.4224 144.281 66.6506C144.096 66.8788 143.863 67.0633 143.598 67.1911C143.334 67.3189 143.044 67.3868 142.75 67.39H60.1501C59.7007 67.3886 59.2649 67.2358 58.913 66.9565C58.561 66.6771 58.3134 66.2873 58.2101 65.85V65.85Z" fill="#69C6E2"/>
<path d="M87.5701 16.41H70.2301L69.8401 14.54H87.1801L87.5701 16.41Z" fill="#69C6E2"/>
<path opacity="0.4" d="M84.7499 19.39H77.7899L77.3999 17.52H84.3599L84.7499 19.39Z" fill="#69C6E2"/>
<path opacity="0.4" d="M96.33 19.39H85.61L85.22 17.52H95.94L96.33 19.39Z" fill="#69C6E2"/>
<path opacity="0.4" d="M101 22.36H78.41L78.02 20.49H100.62L101 22.36Z" fill="#69C6E2"/>
<path opacity="0.4" d="M98.1299 25.34H79.0299L78.6399 23.47H97.7399L98.1299 25.34Z" fill="#69C6E2"/>
<path opacity="0.4" d="M110.8 56.95H98.6399L99.0299 58.81H111.19L110.8 56.95Z" fill="#69C6E2"/>
<path d="M95.6399 52.87H77.8299L77.4399 51H95.2499L95.6399 52.87Z" fill="#69C6E2"/>
<path opacity="0.4" d="M102.8 59.92H86.24L86.63 61.79H103.19L102.8 59.92Z" fill="#69C6E2"/>
<path opacity="0.4" d="M97.7801 56.95H85.6201L86.0101 58.81H98.1701L97.7801 56.95Z" fill="#69C6E2"/>
<path opacity="0.4" d="M109.32 53.97H85L85.39 55.84H109.71L109.32 53.97Z" fill="#69C6E2"/>
<path d="M86.96 2.53H67.34L66.95 0.669998H86.57L86.96 2.53Z" fill="#69C6E2"/>
<path opacity="0.4" d="M96.65 9.59H75.01L75.4 11.46H97.03L96.65 9.59Z" fill="#69C6E2"/>
<path opacity="0.4" d="M92.3199 6.62H74.3899L74.7799 8.48H92.7099L92.3199 6.62Z" fill="#69C6E2"/>
<path opacity="0.4" d="M93.51 3.64H73.77L74.16 5.51H93.9L93.51 3.64Z" fill="#69C6E2"/>
<path d="M86.74 30.18H73.1L72.71 28.31H86.35L86.74 30.18Z" fill="#69C6E2"/>
<path opacity="0.4" d="M108.16 37.23H81.51L81.9 39.1H108.54L108.16 37.23Z" fill="#69C6E2"/>
<path opacity="0.4" d="M91.9299 34.26H80.8899L81.2799 36.13H92.3199L91.9299 34.26Z" fill="#69C6E2"/>
<path opacity="0.4" d="M103.91 34.26H92.8701L93.2601 36.13H104.3L103.91 34.26Z" fill="#69C6E2"/>
<path opacity="0.4" d="M104.59 31.28H80.27L80.66 33.15H104.97L104.59 31.28Z" fill="#69C6E2"/>
<path opacity="0.4" d="M104.54 46.16H83.3701L83.7601 48.02H104.93L104.54 46.16Z" fill="#69C6E2"/>
<path opacity="0.4" d="M88.91 43.18H82.75L83.14 45.05H89.29L88.91 43.18Z" fill="#69C6E2"/>
<path opacity="0.4" d="M98.54 43.18H89.75L90.14 45.05H98.93L98.54 43.18Z" fill="#69C6E2"/>
<path opacity="0.4" d="M106.45 40.21H82.1301L82.5201 42.07H106.84L106.45 40.21Z" fill="#69C6E2"/>
<path opacity="0.4" d="M125.6 39.71H116.89L116.5 37.84H125.22L125.6 39.71Z" fill="#69C6E2"/>
<path opacity="0.4" d="M140.1 39.71H126.68L126.29 37.84H139.71L140.1 39.71Z" fill="#69C6E2"/>
<path opacity="0.4" d="M145.8 42.69H117.51L117.12 40.82H145.41L145.8 42.69Z" fill="#69C6E2"/>
<path opacity="0.4" d="M142.04 45.66H118.13L117.74 43.79H141.65L142.04 45.66Z" fill="#69C6E2"/>
<path opacity="0.4" d="M152.75 27.88H125.66L126.05 29.74H153.14L152.75 27.88Z" fill="#69C6E2"/>
<path opacity="0.4" d="M147.49 24.9H125.04L125.43 26.77H147.87L147.49 24.9Z" fill="#69C6E2"/>
<path d="M143.43 21.93H118.71L119.1 23.79H143.82L143.43 21.93Z" fill="#69C6E2"/>
<path opacity="0.4" d="M153.97 57.56H120.61L121 59.43H154.36L153.97 57.56Z" fill="#69C6E2"/>
<path opacity="0.4" d="M133.81 54.59H119.99L120.38 56.45H134.2L133.81 54.59Z" fill="#69C6E2"/>
<path opacity="0.4" d="M148.81 54.59H134.99L135.38 56.45H149.2L148.81 54.59Z" fill="#69C6E2"/>
<path opacity="0.4" d="M149.81 51.61H119.37L119.76 53.48H150.2L149.81 51.61Z" fill="#69C6E2"/>
<path opacity="0.4" d="M148.97 66.48H122.47L122.86 68.35H149.36L148.97 66.48Z" fill="#69C6E2"/>
<path opacity="0.4" d="M129.56 63.51H121.85L122.24 65.38H129.95L129.56 63.51Z" fill="#69C6E2"/>
<path opacity="0.4" d="M141.62 63.51H130.62L131.01 65.38H142.01L141.62 63.51Z" fill="#69C6E2"/>
<path opacity="0.4" d="M151.68 60.53H121.23L121.62 62.4H152.06L151.68 60.53Z" fill="#69C6E2"/>
<path opacity="0.4" d="M70.6001 68.79H49.8601L50.2501 70.66H70.9901L70.6001 68.79Z" fill="#69C6E2"/>
<path opacity="0.4" d="M64.47 65.82H49.24L49.63 67.68H64.85L64.47 65.82Z" fill="#69C6E2"/>
<path opacity="0.4" d="M80.76 65.82H65.54L65.93 67.68H81.16L80.76 65.82Z" fill="#69C6E2"/>
<path opacity="0.4" d="M79.0701 62.84H48.6201L49.0101 64.71H79.4501L79.0701 62.84Z" fill="#69C6E2"/>
<path d="M311.95 124.66H299.11L300.61 144.09H310.45L311.95 124.66Z" fill="#69C6E2"/>
<path opacity="0.4" d="M311.95 124.66H299.11L300.61 144.09H310.45L311.95 124.66Z" fill="white"/>
<path d="M32.1301 111.17H50.5901L44.2901 144.09H25.8301L32.1301 111.17Z" fill="#263238"/>
<path d="M55.6401 102.35H29.5701L36.8701 144.09H62.9401L55.6401 102.35Z" fill="#69C6E2"/>
<path d="M28.03 102.35H29.57L36.87 144.09H35.33L28.03 102.35Z" fill="#69C6E2"/>
<path opacity="0.3" d="M28.03 102.35H29.57L36.87 144.09H35.33L28.03 102.35Z" fill="black"/>
<path d="M40.6199 139.62L34.8799 106.81H51.8999L57.6299 139.62H40.6199Z" fill="white"/>
<path opacity="0.6" d="M56.8201 139.62L51.0901 106.81H51.9001L57.6301 139.62H56.8201Z" fill="#69C6E2"/>
<path d="M184.77 49C185.14 49.8 185.02 50.65 184.49 50.89C183.96 51.13 183.24 50.68 182.87 49.89C182.5 49.1 182.63 48.24 183.15 48C183.67 47.76 184.4 48.16 184.77 49Z" fill="#263238"/>
<path d="M185.09 50.58C185.09 50.58 185.41 56.04 184.43 59.2C186.43 59.87 188.59 58.2 188.59 58.2L185.09 50.58Z" fill="#FF5652"/>
<path d="M184.87 42.39C184.785 42.4602 184.68 42.5022 184.57 42.51C183.919 42.5272 183.282 42.6984 182.71 43.0095C182.138 43.3207 181.648 43.7629 181.28 44.3C181.247 44.3615 181.202 44.4158 181.148 44.4596C181.094 44.5034 181.031 44.5359 180.964 44.555C180.897 44.5742 180.827 44.5796 180.758 44.5711C180.688 44.5625 180.622 44.5401 180.561 44.5052C180.501 44.4704 180.448 44.4237 180.406 44.368C180.364 44.3123 180.334 44.2487 180.317 44.181C180.3 44.1134 180.297 44.043 180.308 43.9741C180.318 43.9052 180.343 43.8392 180.38 43.78C180.833 43.0923 181.445 42.5235 182.163 42.1215C182.882 41.7195 183.687 41.496 184.51 41.47C184.619 41.464 184.728 41.4926 184.82 41.5518C184.912 41.611 184.983 41.6977 185.023 41.7997C185.063 41.9017 185.069 42.0136 185.042 42.1196C185.015 42.2256 184.954 42.3202 184.87 42.39V42.39Z" fill="#263238"/>
<path d="M214.22 47.76C217.31 58.46 220.76 66.76 224.97 71.5C224.97 71.5 225.05 79.91 210.72 83.91C194.96 88.31 201 78.19 201 78.19C209 73.74 208.24 67.02 202.22 64.46L214.22 47.76Z" fill="#FF8B7B"/>
<path d="M228.31 69.45C228.03 65.54 227.66 61.08 225.25 60.96C222.59 60.84 207.19 67.72 203.9 72.57C200.61 77.42 207.04 82.17 207.04 82.17L228.31 69.45Z" fill="#263238"/>
<path d="M196.79 130L183.49 129.56L183.73 140.7C183.73 140.7 195.33 139.5 195.84 136.45L196.79 130Z" fill="#FF8B7B"/>
<path d="M176.46 135.03L175.06 140.73L183.73 140.71L183.49 129.57L176.46 135.03Z" fill="#FF8B7B"/>
<path d="M250.17 83.71L249.89 86.57C249.8 87.49 249.68 88.39 249.56 89.3C249.33 91.11 249.04 92.92 248.73 94.72C248.13 98.33 247.35 101.92 246.45 105.53C245.535 109.209 244.427 112.838 243.13 116.4C242.44 118.23 241.72 120.06 240.86 121.92C239.993 123.871 238.991 125.759 237.86 127.57C237.59 128.04 237.25 128.57 236.92 129.01C236.59 129.45 236.27 130.01 235.92 130.47C235.57 130.93 235.2 131.47 234.74 131.94L234.09 132.68C233.857 132.953 233.61 133.213 233.35 133.46C231.346 135.423 228.996 136.999 226.42 138.11C222.468 139.805 218.273 140.868 213.99 141.26C212.04 141.49 210.11 141.58 208.22 141.63C206.33 141.68 204.44 141.63 202.58 141.53C200.72 141.43 198.88 141.27 197.05 141.05C195.22 140.83 193.44 140.54 191.5 140.15L191.82 129.7C198.205 128.583 204.517 127.081 210.72 125.2C212.1 124.751 213.455 124.231 214.78 123.64C215.908 123.164 216.987 122.578 218 121.89C218.589 121.535 219.089 121.049 219.46 120.47L219.75 120.01C219.884 119.814 220.008 119.61 220.12 119.4C220.263 119.17 220.393 118.933 220.51 118.69C220.64 118.43 220.78 118.19 220.91 117.9C222.085 115.335 223.051 112.68 223.8 109.96C224.62 107.02 225.39 103.96 226.01 100.79C226.63 97.62 227.23 94.42 227.78 91.19L228.54 86.33L229.23 81.6L250.17 83.71Z" fill="#69C6E2"/>
<path opacity="0.2" d="M250.17 83.71L249.89 86.57C249.8 87.49 249.68 88.39 249.56 89.3C249.33 91.11 249.04 92.92 248.73 94.72C248.13 98.33 247.35 101.92 246.45 105.53C245.535 109.209 244.427 112.838 243.13 116.4C242.44 118.23 241.72 120.06 240.86 121.92C239.993 123.871 238.991 125.759 237.86 127.57C237.59 128.04 237.25 128.57 236.92 129.01C236.59 129.45 236.27 130.01 235.92 130.47C235.57 130.93 235.2 131.47 234.74 131.94L234.09 132.68C233.857 132.953 233.61 133.213 233.35 133.46C231.346 135.423 228.996 136.999 226.42 138.11C222.468 139.805 218.273 140.868 213.99 141.26C212.04 141.49 210.11 141.58 208.22 141.63C206.33 141.68 204.44 141.63 202.58 141.53C200.72 141.43 198.88 141.27 197.05 141.05C195.22 140.83 193.44 140.54 191.5 140.15L191.82 129.7C198.205 128.583 204.517 127.081 210.72 125.2C212.1 124.751 213.455 124.231 214.78 123.64C215.908 123.164 216.987 122.578 218 121.89C218.589 121.535 219.089 121.049 219.46 120.47L219.75 120.01C219.884 119.814 220.008 119.61 220.12 119.4C220.263 119.17 220.393 118.933 220.51 118.69C220.64 118.43 220.78 118.19 220.91 117.9C222.085 115.335 223.051 112.68 223.8 109.96C224.62 107.02 225.39 103.96 226.01 100.79C226.63 97.62 227.23 94.42 227.78 91.19L228.54 86.33L229.23 81.6L250.17 83.71Z" fill="black"/>
<path d="M191.12 97C196.079 118.378 198.869 140.202 199.45 162.14H258C258.32 154.91 257.1 114.14 251.21 84.69C250.687 82.0225 249.637 79.4864 248.12 77.2307C246.603 74.975 244.651 73.0452 242.378 71.5547C240.104 70.0641 237.556 69.0428 234.883 68.5509C232.21 68.059 229.465 68.1063 226.81 68.69L226.53 68.76C219.22 70.42 208.73 73.1 202.53 75.45L202.28 75.55C198.134 77.1622 194.715 80.2273 192.662 84.1739C190.608 88.1205 190.06 92.6792 191.12 97V97Z" fill="#69C6E2"/>
<path opacity="0.2" d="M194.93 115.7C195.39 118.51 195.86 121.49 196.29 124.61C201.08 119.61 202.6 104.29 202.6 104.29L194.93 115.7Z" fill="black"/>
<path d="M146.29 130.73L133 129.49L132.56 140.62C134.756 141.226 137.077 141.22 139.27 140.601C141.463 139.982 143.444 138.775 145 137.11L146.29 130.73Z" fill="#FF8B7B"/>
<path d="M126.68 132.77L122.42 140.42L132.6 140.62L133.04 129.49L126.68 132.77Z" fill="#FF8B7B"/>
<path d="M213.09 91.87C212.17 93.62 211.35 95.17 210.43 96.77C209.51 98.37 208.63 99.93 207.68 101.48C205.8 104.6 203.85 107.66 201.79 110.69C197.654 116.895 193.072 122.791 188.08 128.33C185.407 131.312 182.501 134.078 179.39 136.6C179 136.93 178.54 137.25 178.11 137.6C177.68 137.95 177.3 138.23 176.66 138.6C176.02 138.97 175.48 139.34 174.9 139.66C174.32 139.98 173.72 140.27 173.13 140.53C170.924 141.488 168.616 142.189 166.25 142.62C162.112 143.318 157.895 143.412 153.73 142.9C151.779 142.676 149.843 142.343 147.93 141.9C146.977 141.68 146.037 141.43 145.11 141.15C144.11 140.87 143.3 140.56 142.23 140.15L143.88 129.83C150.16 128.98 156.95 127.89 161.63 125.77C162.669 125.343 163.647 124.782 164.54 124.1C164.899 123.853 165.234 123.571 165.54 123.26C165.61 123.17 165.92 122.9 166.15 122.68C166.38 122.46 166.65 122.25 166.9 121.99C169.04 119.869 171.044 117.614 172.9 115.24C176.926 110.046 180.687 104.653 184.17 99.08C185.97 96.25 187.72 93.37 189.47 90.48L192.05 86.14L194.54 81.87L213.09 91.87Z" fill="#69C6E2"/>
<path d="M197.02 300.6H186.08L180.57 275.25H191.52L197.02 300.6Z" fill="#FF8B7B"/>
<path d="M185.47 298.26H197.77C197.984 298.268 198.19 298.344 198.357 298.477C198.524 298.61 198.645 298.793 198.7 299L200.86 308.74C200.912 308.977 200.909 309.222 200.852 309.457C200.795 309.692 200.685 309.912 200.531 310.098C200.377 310.285 200.183 310.435 199.962 310.535C199.742 310.636 199.502 310.686 199.26 310.68C194.97 310.61 192.88 310.36 187.47 310.36C184.14 310.36 179.87 310.7 175.28 310.7C170.69 310.7 170.08 306.16 171.96 305.75C180.4 303.9 180.96 301.36 183.69 298.93C184.18 298.493 184.814 298.254 185.47 298.26Z" fill="#263238"/>
<g opacity="0.2">
<path opacity="0.2" d="M191.53 275.26H180.57L183.63 289.3L194.37 288.33L191.53 275.26Z" fill="black"/>
</g>
<path d="M210.71 34.9C214.71 45.02 217.49 50.75 214.85 58.1C210.85 69.15 196.66 70.27 189.76 61.53C183.56 53.66 178.14 38.43 185.97 30.06C187.685 28.2044 189.846 26.8184 192.247 26.0336C194.649 25.2489 197.211 25.0916 199.691 25.5766C202.17 26.0617 204.484 27.1731 206.413 28.805C208.342 30.4369 209.821 32.5351 210.71 34.9V34.9Z" fill="#FF8B7B"/>
<path d="M191.49 50.06C189.85 52.26 188.59 53.93 188.59 53.93C188.59 53.93 185.22 45.56 186.51 41.72C184.87 38.47 181.56 43.26 180.31 36.93C179.06 30.6 184.47 23.8 186.51 22.39C186.72 23.1276 186.815 23.8934 186.79 24.66C192.302 20.1866 199.308 17.974 206.39 18.47C205.798 19.3503 205.421 20.3574 205.29 21.41C205.29 21.41 217.16 23.41 219.86 30.13C218.905 29.6742 217.897 29.3384 216.86 29.13C219.036 32.2498 219.898 36.1002 219.26 39.85C218.399 45.3185 217.951 50.8442 217.92 56.38C218.03 59.22 210.24 64.65 205.49 58.85C200.74 53.05 191.49 50.06 191.49 50.06Z" fill="#263238"/>
<path d="M196.44 47.88C197.06 50.2372 196.884 52.7329 195.94 54.98C194.67 57.98 192.06 57.26 190.77 54.64C189.6 52.29 188.85 47.93 190.92 45.84C192.99 43.75 195.66 45.05 196.44 47.88Z" fill="#FF8B7B"/>
<path d="M217 162.1C217 162.1 166.16 180.54 164.67 204.93C161.91 249.86 180.28 285.43 180.28 285.43L197.12 283.63C197.12 283.63 194.12 269.17 191.89 228.47C189.08 177.32 275.89 229.67 258.01 162.1H217Z" fill="#69C6E2"/>
<path opacity="0.5" d="M217 162.1C217 162.1 166.16 180.54 164.67 204.93C161.91 249.86 180.28 285.43 180.28 285.43L197.12 283.63C197.12 283.63 194.12 269.17 191.89 228.47C189.08 177.32 275.89 229.67 258.01 162.1H217Z" fill="white"/>
<path d="M175.62 279.23C175.54 279.23 178.3 286.71 178.3 286.71L199.3 284.65L198.25 277.85L175.62 279.23Z" fill="#69C6E2"/>
<path d="M149.73 301.85H138.78L135.58 276.49H146.53L149.73 301.85Z" fill="#FF8B7B"/>
<path d="M138.7 298.25H150.7C150.917 298.247 151.127 298.32 151.297 298.454C151.466 298.589 151.584 298.778 151.63 298.99L153.81 308.72C153.874 308.958 153.881 309.208 153.832 309.45C153.782 309.691 153.677 309.918 153.525 310.112C153.372 310.306 153.177 310.462 152.954 310.568C152.731 310.673 152.487 310.725 152.24 310.72C147.93 310.65 141.69 310.41 136.24 310.42C129.9 310.42 128.69 310.77 121.24 310.78C116.74 310.78 115.49 306.25 117.37 305.78C125.93 303.9 128.67 303.69 136.06 299.12C136.84 298.586 137.756 298.285 138.7 298.25Z" fill="#263238"/>
<path opacity="0.2" d="M135.59 276.5L137.33 290.31L148.19 289.57L146.54 276.5H135.59Z" fill="black"/>
<path d="M199.45 162.1C199.45 162.1 116.15 169.49 117.05 211.33C117.98 254.85 134.24 284.2 134.24 284.2H150.5C150.5 284.2 147.42 261.62 147.97 218.78C148.13 205.95 174.07 201.71 199.39 200.21C221.27 198.91 241.75 186.44 250.25 166.21L252 162.1H199.45Z" fill="#69C6E2"/>
<path opacity="0.5" d="M199.45 162.1C199.45 162.1 116.15 169.49 117.05 211.33C117.98 254.85 134.24 284.2 134.24 284.2H150.5C150.5 284.2 147.42 261.62 147.97 218.78C148.13 205.95 174.07 201.71 199.39 200.21C221.27 198.91 241.75 186.44 250.25 166.21L252 162.1H199.45Z" fill="white"/>
<path d="M130.43 279.83C130.36 279.83 133.22 287.35 133.22 287.35L152.86 285.94L151.71 279.14L130.43 279.83Z" fill="#69C6E2"/>
<path d="M221.32 115.08L210.75 155.81C208.047 166.245 206.683 176.981 206.69 187.76V206.69C206.69 211.47 210.21 215.35 214.56 215.35H268.74C273.09 215.35 276.61 211.47 276.61 206.69V187.76C276.606 176.981 277.974 166.244 280.68 155.81L290.01 119.81C291.45 114.28 287.67 108.81 282.44 108.81H228.88C227.102 108.866 225.394 109.513 224.025 110.648C222.655 111.784 221.704 113.343 221.32 115.08Z" fill="#263238"/>
<path d="M153.93 195.63L155.7 205.73C156.64 211.04 161.31 215.35 166.14 215.35H226.37C231.2 215.35 234.37 211.04 233.43 205.73L231.66 195.63C230.59 189.58 225.28 184.68 219.78 184.68H162C156.46 184.68 152.87 189.58 153.93 195.63Z" fill="#263238"/>
<path d="M232.17 225.49H200.62L197.54 215.35H235.25L232.17 225.49Z" fill="#69C6E2"/>
<path d="M222.03 225.49H210.76V300.9H222.03V225.49Z" fill="#69C6E2"/>
<path opacity="0.7" d="M222.03 300.9H210.76V227.3L222.03 228.45V300.9Z" fill="white"/>
<path opacity="0.7" d="M219.28 300.9H216.59V227.89L219.28 228.17V300.9Z" fill="white"/>
<path d="M242.31 312.56H190.47C190.168 312.557 189.874 312.459 189.631 312.28C189.387 312.101 189.206 311.85 189.113 311.563C189.02 311.275 189.02 310.966 189.113 310.678C189.206 310.39 189.387 310.139 189.63 309.96L197.85 303.96C201.802 301.066 206.572 299.504 211.47 299.5H221.32C226.215 299.505 230.981 301.067 234.93 303.96L243.16 309.96C243.404 310.14 243.586 310.392 243.678 310.68C243.771 310.969 243.77 311.279 243.676 311.567C243.581 311.856 243.399 312.107 243.154 312.285C242.908 312.463 242.613 312.559 242.31 312.56Z" fill="#69C6E2"/>
</svg>
