<svg width="100" height="100" viewBox="0 0 100 100" fill="none" xmlns="http://www.w3.org/2000/svg">
<g clip-path="url(#clip0)">
<path d="M78.125 37.5H75V25C75 11.2125 63.7875 0 50 0C36.2125 0 25 11.2125 25 25V37.5H21.875C16.7083 37.5 12.5 41.7042 12.5 46.875V90.625C12.5 95.7958 16.7083 100 21.875 100H78.125C83.2917 100 87.5 95.7958 87.5 90.625V46.875C87.5 41.7042 83.2917 37.5 78.125 37.5ZM33.3333 25C33.3333 15.8083 40.8083 8.33333 50 8.33333C59.1917 8.33333 66.6667 15.8083 66.6667 25V37.5H33.3333V25ZM54.1667 69.675V79.1667C54.1667 81.4667 52.3042 83.3333 50 83.3333C47.6958 83.3333 45.8333 81.4667 45.8333 79.1667V69.675C43.3542 68.2292 41.6667 65.5708 41.6667 62.5C41.6667 57.9042 45.4042 54.1667 50 54.1667C54.5958 54.1667 58.3333 57.9042 58.3333 62.5C58.3333 65.5708 56.6458 68.2292 54.1667 69.675Z" fill="#777777"/>
</g>
<defs>
<clipPath id="clip0">
<rect width="100" height="100" fill="white"/>
</clipPath>
</defs>
</svg>
