<svg viewBox="0 0 100 100" fill="none" xmlns="http://www.w3.org/2000/svg">
<g clip-path="url(#clip0)">
<path d="M49.2874 48.1703C55.9052 48.1703 61.6356 45.7968 66.3177 41.1139C70.9999 36.4317 73.3734 30.7029 73.3734 24.0844C73.3734 17.4682 70.9999 11.7385 66.317 7.05487C61.6341 2.3735 55.9044 0 49.2874 0C42.6689 0 36.94 2.3735 32.2578 7.05564C27.5757 11.7378 25.2014 17.4674 25.2014 24.0844C25.2014 30.7029 27.5757 36.4325 32.2586 41.1146C36.9415 45.796 42.6712 48.1703 49.2874 48.1703V48.1703Z" fill="#777777"/>
<path d="M91.4314 76.8949C91.2964 74.9463 91.0233 72.8208 90.6212 70.5762C90.2153 68.3149 89.6927 66.1771 89.0671 64.2233C88.4209 62.2038 87.542 60.2095 86.4555 58.2983C85.3279 56.3147 84.0034 54.5874 82.5172 53.166C80.9631 51.6791 79.0604 50.4835 76.86 49.6115C74.6674 48.744 72.2374 48.3046 69.6381 48.3046C68.6172 48.3046 67.63 48.7234 65.7234 49.9647C64.55 50.73 63.1775 51.615 61.6455 52.5938C60.3355 53.4285 58.5609 54.2105 56.369 54.9185C54.2305 55.6105 52.0592 55.9614 49.9161 55.9614C47.773 55.9614 45.6024 55.6105 43.4616 54.9185C41.272 54.2112 39.4974 53.4292 38.1889 52.5946C36.6714 51.6249 35.2982 50.7399 34.1072 49.964C32.2029 48.7227 31.2149 48.3038 30.1941 48.3038C27.594 48.3038 25.1648 48.744 22.9729 49.6123C20.7741 50.4828 18.8705 51.6783 17.3149 53.1668C15.8295 54.5889 14.5042 56.3154 13.3781 58.2983C12.2925 60.2095 11.4136 62.203 10.7666 64.224C10.1418 66.1779 9.61914 68.3149 9.21326 70.5762C8.81119 72.8177 8.53806 74.944 8.40302 76.8972C8.27026 78.8106 8.20312 80.7965 8.20312 82.8023C8.20312 88.0223 9.86252 92.2482 13.1348 95.3648C16.3666 98.4402 20.6429 100 25.843 100H73.9937C79.1939 100 83.4686 98.441 86.7012 95.3648C89.9742 92.2505 91.6336 88.0238 91.6336 82.8015C91.6328 80.7866 91.5649 78.7992 91.4314 76.8949V76.8949Z" fill="#777777"/>
</g>
<defs>
<clipPath id="clip0">
<rect width="100" height="100" fill="white"/>
</clipPath>
</defs>
</svg>
